<mxfile host="Electron" modified="2024-05-18T14:13:50.048Z" agent="Mozilla/5.0 (Windows NT 10.0; Win64; x64) AppleWebKit/537.36 (KHTML, like Gecko) draw.io/24.4.0 Chrome/120.0.6099.109 Electron/28.1.0 Safari/537.36" etag="X5man927XEayBeZiW7VL" version="24.4.0" type="device">
  <diagram name="Seite-1" id="ansaxyW9MRAJ5imaTTL8">
    <mxGraphModel dx="794" dy="605" grid="1" gridSize="10" guides="1" tooltips="1" connect="1" arrows="1" fold="1" page="1" pageScale="1" pageWidth="827" pageHeight="1169" math="0" shadow="0">
      <root>
        <mxCell id="0" />
        <mxCell id="1" parent="0" />
        <mxCell id="SLVdw7PkB3vjQkmEY8x_-1" value="Node" style="swimlane;fontStyle=1;align=center;verticalAlign=top;childLayout=stackLayout;horizontal=1;startSize=26;horizontalStack=0;resizeParent=1;resizeParentMax=0;resizeLast=0;collapsible=1;marginBottom=0;whiteSpace=wrap;html=1;" vertex="1" parent="1">
          <mxGeometry x="330" y="260" width="160" height="118" as="geometry" />
        </mxCell>
        <mxCell id="SLVdw7PkB3vjQkmEY8x_-2" value="+ key&lt;div&gt;+value&lt;/div&gt;&lt;div&gt;- parent&lt;/div&gt;&lt;div&gt;- left&lt;/div&gt;&lt;div&gt;- right&lt;/div&gt;" style="text;strokeColor=none;fillColor=none;align=left;verticalAlign=top;spacingLeft=4;spacingRight=4;overflow=hidden;rotatable=0;points=[[0,0.5],[1,0.5]];portConstraint=eastwest;whiteSpace=wrap;html=1;" vertex="1" parent="SLVdw7PkB3vjQkmEY8x_-1">
          <mxGeometry y="26" width="160" height="84" as="geometry" />
        </mxCell>
        <mxCell id="SLVdw7PkB3vjQkmEY8x_-3" value="" style="line;strokeWidth=1;fillColor=none;align=left;verticalAlign=middle;spacingTop=-1;spacingLeft=3;spacingRight=3;rotatable=0;labelPosition=right;points=[];portConstraint=eastwest;strokeColor=inherit;" vertex="1" parent="SLVdw7PkB3vjQkmEY8x_-1">
          <mxGeometry y="110" width="160" height="8" as="geometry" />
        </mxCell>
        <mxCell id="SLVdw7PkB3vjQkmEY8x_-6" value="Binary Search Tree" style="swimlane;fontStyle=1;align=center;verticalAlign=top;childLayout=stackLayout;horizontal=1;startSize=26;horizontalStack=0;resizeParent=1;resizeParentMax=0;resizeLast=0;collapsible=1;marginBottom=0;whiteSpace=wrap;html=1;" vertex="1" parent="1">
          <mxGeometry x="100" y="260" width="160" height="140" as="geometry" />
        </mxCell>
        <mxCell id="SLVdw7PkB3vjQkmEY8x_-7" value="+ root" style="text;strokeColor=none;fillColor=none;align=left;verticalAlign=top;spacingLeft=4;spacingRight=4;overflow=hidden;rotatable=0;points=[[0,0.5],[1,0.5]];portConstraint=eastwest;whiteSpace=wrap;html=1;" vertex="1" parent="SLVdw7PkB3vjQkmEY8x_-6">
          <mxGeometry y="26" width="160" height="34" as="geometry" />
        </mxCell>
        <mxCell id="SLVdw7PkB3vjQkmEY8x_-8" value="" style="line;strokeWidth=1;fillColor=none;align=left;verticalAlign=middle;spacingTop=-1;spacingLeft=3;spacingRight=3;rotatable=0;labelPosition=right;points=[];portConstraint=eastwest;strokeColor=inherit;" vertex="1" parent="SLVdw7PkB3vjQkmEY8x_-6">
          <mxGeometry y="60" width="160" height="8" as="geometry" />
        </mxCell>
        <mxCell id="SLVdw7PkB3vjQkmEY8x_-9" value="+ search&lt;div&gt;+ insert&lt;/div&gt;&lt;div&gt;+ delete&lt;/div&gt;&lt;div&gt;+ traversal&lt;/div&gt;" style="text;strokeColor=none;fillColor=none;align=left;verticalAlign=top;spacingLeft=4;spacingRight=4;overflow=hidden;rotatable=0;points=[[0,0.5],[1,0.5]];portConstraint=eastwest;whiteSpace=wrap;html=1;" vertex="1" parent="SLVdw7PkB3vjQkmEY8x_-6">
          <mxGeometry y="68" width="160" height="72" as="geometry" />
        </mxCell>
        <mxCell id="SLVdw7PkB3vjQkmEY8x_-10" value="" style="endArrow=diamondThin;endFill=1;endSize=24;html=1;rounded=0;exitX=1.019;exitY=0.088;exitDx=0;exitDy=0;entryX=-0.008;entryY=0.107;entryDx=0;entryDy=0;entryPerimeter=0;exitPerimeter=0;" edge="1" parent="1" source="SLVdw7PkB3vjQkmEY8x_-6" target="SLVdw7PkB3vjQkmEY8x_-1">
          <mxGeometry width="160" relative="1" as="geometry">
            <mxPoint x="330" y="310" as="sourcePoint" />
            <mxPoint x="490" y="310" as="targetPoint" />
          </mxGeometry>
        </mxCell>
      </root>
    </mxGraphModel>
  </diagram>
</mxfile>
